<?xml version="1.0" encoding="utf-8"?>
<!-- Generator: Adobe Illustrator 26.2.1, SVG Export Plug-In . SVG Version: 6.00 Build 0)  -->
<svg version="1.1" id="Layer_1" xmlns="http://www.w3.org/2000/svg" xmlns:xlink="http://www.w3.org/1999/xlink" x="0px" y="0px"
	 viewBox="0 0 24 24" style="enable-background:new 0 0 24 24;" xml:space="preserve">
<style type="text/css">
	.st0{fill:#FFFFFF;}
</style>
<g>
	<g>
		<path class="st0" d="M17.2,18.3c-0.2,0-0.5-0.2-0.5-0.4c-0.1-0.3,0.1-0.6,0.4-0.7c2.4-0.7,3.9-2,3.9-3.3c0-0.8-0.6-1.5-1.1-1.9
			c-0.3-0.2-0.3-0.6-0.1-0.9c0.2-0.3,0.5-0.3,0.8-0.1c1,0.8,1.5,1.8,1.5,2.8c0,1.8-1.7,3.4-4.6,4.4C17.3,18.3,17.3,18.3,17.2,18.3z"
			/>
	</g>
	<path class="st0" d="M13,17.7l-2.4-1.9c-0.3-0.2-0.6-0.2-0.8,0.1c-0.2,0.3-0.2,0.6,0.1,0.9l1.4,1.1c-2.2-0.1-4.2-0.5-5.8-1.3
		c-1.5-0.7-2.4-1.7-2.4-2.7c0-0.9,0.8-1.7,1.4-2.1c0.3-0.2,0.3-0.6,0.2-0.8c-0.2-0.3-0.5-0.3-0.7-0.2c-1.3,0.9-2,1.9-2,3.1
		c0,1.5,1.1,2.8,3.1,3.8c1.5,0.7,3.4,1.2,5.4,1.3l-0.5,0.4c-0.3,0.2-0.3,0.6-0.2,0.9c0.1,0.2,0.3,0.3,0.5,0.3c0.1,0,0.2-0.1,0.3-0.1
		l2.4-1.8c0.2-0.1,0.2-0.3,0.3-0.5C13.2,18,13.1,17.8,13,17.7z"/>
</g>
<g>
	<path class="st0" d="M17,22H7.5c-1.2,0-2.1-1-2.1-2.3V4.3C5.4,3,6.4,2,7.5,2H17c1.2,0,2.1,1,2.1,2.3v15.4C19.2,21,18.2,22,17,22z
		 M7.5,3.1C7,3.1,6.5,3.7,6.5,4.3v15.4c0,0.6,0.5,1.1,1.1,1.1H17c0.6,0,1.1-0.5,1.1-1.1V4.3c0-0.6-0.5-1.1-1.1-1.1H7.5z"/>
</g>
</svg>
