<?xml version="1.0" encoding="utf-8"?>
<!-- Generator: Adobe Illustrator 27.9.0, SVG Export Plug-In . SVG Version: 6.00 Build 0)  -->
<svg version="1.1" id="Layer_1" xmlns="http://www.w3.org/2000/svg" xmlns:xlink="http://www.w3.org/1999/xlink" x="0px" y="0px"
	 viewBox="0 0 64 64" style="enable-background:new 0 0 64 64;" xml:space="preserve">
<style type="text/css">
	.st0{fill:#FFFFFF;}
</style>
<g id="surface1">
	<path class="st0" d="M41.2,0.5C40.9,0.2,40.5,0,40.1,0h-25c-4.6,0-8.4,3.8-8.4,8.4v47.2c0,4.6,3.8,8.4,8.4,8.4H49
		c4.6,0,8.4-3.8,8.4-8.4V18.1c0-0.4-0.2-0.8-0.4-1.1L41.2,0.5z M41.7,5.5l10.6,11.1h-6.9c-2,0-3.7-1.6-3.7-3.7V5.5z M48,60.9H16.2
		c-2.9,0-5.3-2.4-5.3-5.3V9.4c0-2.9,2.4-5.3,5.3-5.3h21.4v9.8c0,3.8,3,6.8,6.8,6.8h9v35C53.4,58.5,50.9,60.9,48,60.9z"/>
	<path class="st0" d="M44.8,50.2H19.4c-0.9,0-1.5,0.7-1.5,1.5c0,0.9,0.7,1.5,1.5,1.5h25.5c0.9,0,1.5-0.7,1.5-1.5
		C46.4,50.9,45.7,50.2,44.8,50.2z"/>
	<path class="st0" d="M31,44.7c0.3,0.3,0.7,0.5,1.1,0.5c0.4,0,0.8-0.2,1.1-0.5l9.1-9.7c0.6-0.6,0.5-1.6-0.1-2.2
		c-0.6-0.6-1.6-0.5-2.2,0.1l-6.4,6.8V22.8c0-0.9-0.7-1.5-1.5-1.5c-0.9,0-1.5,0.7-1.5,1.5v16.9l-6.4-6.8c-0.6-0.6-1.6-0.7-2.2-0.1
		s-0.7,1.6-0.1,2.2L31,44.7z"/>
</g>
</svg>
