<?xml version="1.0" encoding="utf-8"?>
<!-- Generator: Adobe Illustrator 28.0.0, SVG Export Plug-In . SVG Version: 6.00 Build 0)  -->
<svg version="1.1" id="Layer_1" xmlns="http://www.w3.org/2000/svg" xmlns:xlink="http://www.w3.org/1999/xlink" x="0px" y="0px"
	 viewBox="0 0 64 64" style="enable-background:new 0 0 64 64;" xml:space="preserve">
<style type="text/css">
	.st0{fill:#FFFFFF;}
</style>
<path class="st0" d="M48.1,64c-2.7,0-4.9-0.9-6.8-2.8c-1.9-1.9-2.8-4.1-2.8-6.8c0-0.4,0-0.8,0.1-1.2c0.1-0.4,0.1-0.8,0.2-1.1
	L16.3,39c-0.9,0.8-1.9,1.4-3,1.9c-1.1,0.5-2.3,0.7-3.5,0.7c-2.7,0-4.9-0.9-6.8-2.8C1,36.9,0.1,34.7,0.1,32c0-2.7,0.9-4.9,2.8-6.8
	s4.1-2.8,6.8-2.8c1.2,0,2.4,0.2,3.5,0.7s2.1,1.1,3,1.9l22.6-13.1c-0.1-0.3-0.2-0.7-0.2-1.1c-0.1-0.4-0.1-0.8-0.1-1.2
	c0-2.7,0.9-4.9,2.8-6.8S45.4,0,48.1,0c2.7,0,4.9,0.9,6.8,2.8s2.8,4.1,2.8,6.8s-0.9,4.9-2.8,6.8s-4.1,2.8-6.8,2.8
	c-1.2,0-2.4-0.2-3.5-0.7c-1.1-0.5-2.1-1.1-3-1.9L19,29.8c0.1,0.3,0.2,0.7,0.2,1.1c0.1,0.4,0.1,0.8,0.1,1.2s0,0.8-0.1,1.2
	c-0.1,0.4-0.1,0.8-0.2,1.1l22.6,13.1c0.9-0.8,1.9-1.4,3-1.9c1.1-0.5,2.3-0.7,3.5-0.7c2.7,0,4.9,0.9,6.8,2.8c1.9,1.9,2.8,4.1,2.8,6.8
	c0,2.7-0.9,4.9-2.8,6.8C53,63.1,50.8,64,48.1,64z M48.1,12.8c0.9,0,1.7-0.3,2.3-0.9s0.9-1.4,0.9-2.3c0-0.9-0.3-1.7-0.9-2.3
	S49,6.4,48.1,6.4c-0.9,0-1.7,0.3-2.3,0.9s-0.9,1.4-0.9,2.3c0,0.9,0.3,1.7,0.9,2.3S47.2,12.8,48.1,12.8z M9.7,35.2
	c0.9,0,1.7-0.3,2.3-0.9c0.6-0.6,0.9-1.4,0.9-2.3c0-0.9-0.3-1.7-0.9-2.3c-0.6-0.6-1.4-0.9-2.3-0.9c-0.9,0-1.7,0.3-2.3,0.9
	c-0.6,0.6-0.9,1.4-0.9,2.3c0,0.9,0.3,1.7,0.9,2.3C8,34.9,8.8,35.2,9.7,35.2z M48.1,57.6c0.9,0,1.7-0.3,2.3-0.9s0.9-1.4,0.9-2.3
	c0-0.9-0.3-1.7-0.9-2.3c-0.6-0.6-1.4-0.9-2.3-0.9c-0.9,0-1.7,0.3-2.3,0.9c-0.6,0.6-0.9,1.4-0.9,2.3c0,0.9,0.3,1.7,0.9,2.3
	S47.2,57.6,48.1,57.6z"/>
</svg>
