<?xml version="1.0" encoding="utf-8"?>
<!-- Generator: Adobe Illustrator 26.3.1, SVG Export Plug-In . SVG Version: 6.00 Build 0)  -->
<svg version="1.1" id="Layer_1" xmlns="http://www.w3.org/2000/svg" xmlns:xlink="http://www.w3.org/1999/xlink" x="0px" y="0px"
	 viewBox="0 0 120 120" style="enable-background:new 0 0 120 120;" xml:space="preserve">
<style type="text/css">
	.st0{fill:#B7A1B3;}
	.st1{fill:#FFFFFF;}
</style>
<rect x="-13" y="-16" class="st0" width="146" height="146"/>
<g>
	<path class="st1" d="M44.08,40.3h-5.03c-0.9,0-1.73,0.48-2.18,1.26c-0.45,0.78-0.45,1.74,0,2.51c0.45,0.78,1.28,1.26,2.18,1.26
		h5.03c0.9,0,1.73-0.48,2.18-1.26c0.45-0.78,0.45-1.74,0-2.51C45.81,40.78,44.98,40.3,44.08,40.3z M44.08,43.66h-5.03
		c-0.46,0-0.84-0.38-0.84-0.84c0-0.46,0.38-0.84,0.84-0.84h5.03c0.46,0,0.84,0.38,0.84,0.84C44.92,43.28,44.54,43.66,44.08,43.66z"
		/>
	<path class="st1" d="M44.08,48.68h-5.03c-0.9,0-1.73,0.48-2.18,1.26c-0.45,0.78-0.45,1.74,0,2.51c0.45,0.78,1.28,1.26,2.18,1.26
		h5.03c0.9,0,1.73-0.48,2.18-1.26c0.45-0.78,0.45-1.74,0-2.51C45.81,49.16,44.98,48.68,44.08,48.68z M44.08,52.04h-5.03
		c-0.46,0-0.84-0.38-0.84-0.84s0.38-0.84,0.84-0.84h5.03c0.46,0,0.84,0.38,0.84,0.84S44.54,52.04,44.08,52.04z"/>
	<path class="st1" d="M44.08,57.06h-5.03c-0.9,0-1.73,0.48-2.18,1.26c-0.45,0.78-0.45,1.74,0,2.51c0.45,0.78,1.28,1.26,2.18,1.26
		h5.03c0.9,0,1.73-0.48,2.18-1.26c0.45-0.78,0.45-1.74,0-2.51C45.81,57.54,44.98,57.06,44.08,57.06z M44.08,60.42h-5.03
		c-0.46,0-0.84-0.38-0.84-0.84c0-0.46,0.38-0.84,0.84-0.84h5.03c0.46,0,0.84,0.38,0.84,0.84C44.92,60.04,44.54,60.42,44.08,60.42z"
		/>
	<path class="st1" d="M44.08,65.44h-5.03c-0.9,0-1.73,0.48-2.18,1.26c-0.45,0.78-0.45,1.74,0,2.51c0.45,0.78,1.28,1.26,2.18,1.26
		h5.03c0.9,0,1.73-0.48,2.18-1.26c0.45-0.78,0.45-1.74,0-2.51C45.81,65.92,44.98,65.44,44.08,65.44z M44.08,68.79h-5.03
		c-0.46,0-0.84-0.38-0.84-0.84c0-0.46,0.38-0.84,0.84-0.84h5.03c0.46,0,0.84,0.38,0.84,0.84C44.92,68.42,44.54,68.79,44.08,68.79z"
		/>
	<path class="st1" d="M44.08,73.82h-5.03c-0.9,0-1.73,0.48-2.18,1.26c-0.45,0.78-0.45,1.74,0,2.51c0.45,0.78,1.28,1.26,2.18,1.26
		h5.03c0.9,0,1.73-0.48,2.18-1.26c0.45-0.78,0.45-1.74,0-2.51C45.81,74.3,44.98,73.82,44.08,73.82z M44.08,77.17h-5.03
		c-0.46,0-0.84-0.38-0.84-0.84c0-0.46,0.38-0.84,0.84-0.84h5.03c0.46,0,0.84,0.38,0.84,0.84C44.92,76.8,44.54,77.17,44.08,77.17z"/>
	<path class="st1" d="M49.94,40.3c0-0.46-0.38-0.84-0.84-0.84c-0.46,0-0.84,0.38-0.84,0.84v16.55c0,0.46,0.38,0.84,0.84,0.84
		c0.46,0,0.84-0.38,0.84-0.84V40.3z"/>
	<path class="st1" d="M49.11,60.42c-0.46,0-0.84,0.38-0.84,0.84V77.8c0,0.46,0.38,0.84,0.84,0.84c0.46,0,0.84-0.38,0.84-0.84V61.25
		C49.94,60.79,49.57,60.42,49.11,60.42z"/>
	<path class="st1" d="M54.13,75.5h3.35v-1.68h-3.35c-0.9,0-1.73,0.48-2.18,1.26c-0.45,0.78-0.45,1.74,0,2.51
		c0.45,0.78,1.28,1.26,2.18,1.26h3.35v-1.68h-3.35c-0.46,0-0.84-0.38-0.84-0.84C53.3,75.87,53.67,75.5,54.13,75.5z"/>
	<path class="st1" d="M61.62,42.29c-0.12-0.56-0.43-1.07-0.88-1.43c-0.45-0.36-1-0.56-1.58-0.56h-5.03c-0.9,0-1.73,0.48-2.18,1.26
		c-0.45,0.78-0.45,1.74,0,2.51c0.45,0.78,1.28,1.26,2.18,1.26h5.03c0.22,0,0.45-0.03,0.66-0.09C59.97,44.05,60.63,42.97,61.62,42.29
		L61.62,42.29z M59.16,43.66h-5.03c-0.46,0-0.84-0.38-0.84-0.84c0-0.46,0.38-0.84,0.84-0.84h5.03c0.46,0,0.84,0.38,0.84,0.84
		C60,43.28,59.62,43.66,59.16,43.66z"/>
	<path class="st1" d="M54.13,67.12h3.35v-1.68h-3.35c-0.9,0-1.73,0.48-2.18,1.26c-0.45,0.78-0.45,1.74,0,2.51
		c0.45,0.78,1.28,1.26,2.18,1.26h3.35v-1.68h-3.35c-0.46,0-0.84-0.38-0.84-0.84C53.3,67.49,53.67,67.12,54.13,67.12z"/>
	<path class="st1" d="M51.62,59.58c0,0.67,0.27,1.31,0.74,1.78c0.47,0.47,1.11,0.74,1.78,0.74h3.35v-1.68h-3.35
		c-0.46,0-0.84-0.38-0.84-0.84s0.38-0.84,0.84-0.84h3.52c0.16-0.6,0.43-1.17,0.79-1.68h-4.31c-0.67,0-1.31,0.27-1.78,0.74
		C51.89,58.27,51.62,58.91,51.62,59.58L51.62,59.58z"/>
	<path class="st1" d="M54.13,50.36h5.03c0.24,0,0.47,0.11,0.63,0.29v-1.88c-0.2-0.05-0.42-0.08-0.63-0.08h-5.03
		c-0.9,0-1.73,0.48-2.18,1.26c-0.45,0.78-0.45,1.74,0,2.51c0.45,0.78,1.28,1.26,2.18,1.26h5.03c0.52,0,1.02-0.16,1.44-0.46
		c-0.36-0.49-0.6-1.05-0.72-1.64c-0.15,0.26-0.42,0.42-0.72,0.42h-5.03c-0.46,0-0.84-0.38-0.84-0.84
		C53.3,50.73,53.67,50.36,54.13,50.36L54.13,50.36z"/>
	<path class="st1" d="M37.38,82.2c-0.67,0-1.31-0.27-1.78-0.74c-0.47-0.47-0.74-1.11-0.74-1.78V39.05c0-0.67,0.27-1.31,0.74-1.78
		c0.47-0.47,1.11-0.74,1.78-0.74h23.46c0.67,0,1.31,0.27,1.78,0.74c0.47,0.47,0.74,1.11,0.74,1.78v2.57
		c0.21-0.03,0.42-0.05,0.63-0.05h1.05v-2.51c0-1.11-0.44-2.18-1.23-2.96c-0.79-0.79-1.85-1.23-2.96-1.23H37.38
		c-1.11,0-2.18,0.44-2.96,1.23c-0.79,0.79-1.23,1.85-1.23,2.96v40.64c0,1.11,0.44,2.18,1.23,2.96c0.79,0.79,1.85,1.23,2.96,1.23
		h20.92c-0.37-0.49-0.63-1.07-0.74-1.68L37.38,82.2z"/>
	<path class="st1" d="M82.44,55.43c-0.34-0.1-0.58-0.38-0.62-0.73v-1.41h0.6c0.67,0,1.31-0.27,1.78-0.74
		c0.47-0.47,0.74-1.11,0.74-1.78v-5.03c0-0.67-0.27-1.31-0.74-1.78c-0.47-0.47-1.11-0.74-1.78-0.74H63.98
		c-0.67,0-1.31,0.27-1.78,0.74c-0.47,0.47-0.74,1.11-0.74,1.78v5.03c0,0.67,0.27,1.31,0.74,1.78c0.47,0.47,1.11,0.74,1.78,0.74h0.18
		v1.41c-0.04,0.35-0.28,0.63-0.62,0.73c-2.82,1.09-4.38,2.73-4.38,4.61v21.44c0.02,0.59,0.25,1.15,0.64,1.6
		c0.39,0.44,0.92,0.74,1.5,0.83c3.91,0.88,7.92,1.29,11.93,1.22c3.82,0.06,7.63-0.31,11.37-1.11c0.6-0.09,1.14-0.38,1.54-0.82
		c0.4-0.45,0.64-1.02,0.66-1.62V60.04C86.81,58.16,85.26,56.52,82.44,55.43L82.44,55.43z M63.98,51.62c-0.46,0-0.84-0.38-0.84-0.84
		v-5.03c0-0.46,0.38-0.84,0.84-0.84h18.44c0.46,0,0.84,0.38,0.84,0.84v5.03c0,0.46-0.38,0.84-0.84,0.84H63.98z M85.14,76.75H72.99
		c-0.46,0-0.84-0.38-0.84-0.84V63.35c0-0.46,0.38-0.84,0.84-0.84h12.15V76.75z M85.14,60.83H72.99c-0.67,0-1.31,0.27-1.78,0.74
		c-0.47,0.47-0.74,1.11-0.74,1.78v12.57c0,0.67,0.27,1.31,0.74,1.78c0.47,0.47,1.11,0.74,1.78,0.74h12.15v3.15
		c-0.07,0.43-0.42,0.76-0.86,0.8c-3.63,0.78-7.33,1.14-11.04,1.07c-3.89,0.08-7.78-0.32-11.58-1.18c-0.42-0.05-0.76-0.37-0.82-0.79
		V60.04c0-1.59,2.31-2.66,3.31-3.05c0.48-0.17,0.9-0.48,1.2-0.88c0.3-0.41,0.47-0.9,0.49-1.41v-1.41h14.31v1.41h0
		c0.02,0.51,0.19,1,0.49,1.41s0.72,0.72,1.2,0.88c0.99,0.38,3.31,1.45,3.31,3.05L85.14,60.83z"/>
</g>
</svg>
